<?xml version="1.0" standalone="no"?>
<!DOCTYPE svg PUBLIC "-//W3C//DTD SVG 20010904//EN"
 "http://www.w3.org/TR/2001/REC-SVG-20010904/DTD/svg10.dtd">
<svg version="1.0" xmlns="http://www.w3.org/2000/svg"
 width="720.000000pt" height="720.000000pt" viewBox="0 0 720.000000 720.000000"
 preserveAspectRatio="xMidYMid meet">
<metadata>
Created by potrace 1.11, written by Peter Selinger 2001-2013
</metadata>
<g transform="translate(0.000000,720.000000) scale(0.100000,-0.100000)"
fill="#000000" stroke="none">
<path d="M3399 6946 c-2 -2 -44 -7 -94 -11 -49 -4 -97 -9 -105 -10 -8 -1 -42
-5 -75 -10 -66 -8 -76 -10 -150 -25 -27 -5 -62 -12 -77 -15 -61 -11 -82 -17
-200 -50 -447 -128 -818 -319 -1194 -615 -95 -75 -373 -341 -429 -410 -11 -14
-44 -54 -73 -90 -30 -36 -61 -74 -70 -85 -94 -115 -271 -408 -356 -588 -68
-141 -164 -388 -181 -464 -2 -10 -15 -58 -29 -106 -25 -90 -61 -254 -71 -324
-13 -93 -16 -109 -20 -132 -27 -149 -27 -666 1 -838 2 -15 6 -41 9 -58 2 -16
7 -48 11 -70 4 -32 32 -172 49 -245 4 -20 29 -110 54 -195 18 -64 59 -181 80
-230 5 -11 24 -56 42 -100 154 -373 404 -741 709 -1045 145 -145 183 -180 301
-271 371 -290 772 -490 1224 -609 61 -16 124 -32 140 -35 17 -2 41 -7 55 -10
48 -11 135 -26 180 -31 25 -2 56 -7 70 -9 142 -27 613 -27 820 0 755 98 1422
426 1961 964 262 263 463 543 628 876 68 137 149 327 155 360 1 6 4 15 8 20
10 18 81 254 93 315 2 8 12 56 23 105 11 50 23 108 26 130 3 22 8 60 11 85 4
25 8 56 11 70 12 78 19 209 19 400 0 269 -11 398 -51 610 -32 169 -29 158 -69
300 -122 439 -328 837 -622 1205 -112 140 -356 384 -498 498 -99 79 -365 267
-379 267 -3 0 -36 18 -72 41 -83 50 -299 155 -419 202 -267 105 -576 184 -830
212 -27 3 -66 8 -85 11 -44 6 -525 15 -531 10z"/>
</g>
</svg>
